<svg xmlns="http://www.w3.org/2000/svg" version="1.1" xmlns:xlink="http://www.w3.org/1999/xlink" xmlns:svgjs="http://svgjs.dev/svgjs" width="1500" height="496" viewBox="0 0 1500 496"><g transform="matrix(1,0,0,1,-0.9090909090909918,-0.3548888200952831)"><svg viewBox="0 0 396 131" data-background-color="#000000" preserveAspectRatio="xMidYMid meet" height="496" width="1500" xmlns="http://www.w3.org/2000/svg" xmlns:xlink="http://www.w3.org/1999/xlink"><g id="tight-bounds" transform="matrix(1,0,0,1,0.2400000000000091,0.09373071659774723)"><svg viewBox="0 0 395.52 130.81253856680448" height="130.81253856680448" width="395.52"><g><svg viewBox="0 0 607.7362374509726 200.99999999999997" height="130.81253856680448" width="395.52"><g><rect width="8.483960858440277" height="200.99999999999997" x="229.85638044248293" y="0" fill="#9966ff" opacity="1" stroke-width="0" stroke="transparent" fill-opacity="1" class="rect-qz-0" data-fill-palette-color="primary" rx="1%" id="qz-0" data-palette-color="#9966ff"></rect></g><g transform="matrix(1,0,0,1,260.5496629198768,0.4999999999999858)"><svg viewBox="0 0 347.1865745310958 200" height="200" width="347.1865745310958"><g id="textblocktransform"><svg viewBox="0 0 347.1865745310958 200" height="200" width="347.1865745310958" id="textblock"><g><svg viewBox="0 0 347.1865745310958 200" height="200" width="347.1865745310958"><g transform="matrix(1,0,0,1,0,0)"><svg width="347.1865745310958" viewBox="4.25 -36.50000000000001 175.84999999999997 87.65" height="200" data-palette-color="#9966ff"><svg></svg><svg></svg><g class="wordmark-text-0" data-fill-palette-color="primary" id="text-0"><path d="M31.5-9.15v0c0 1.833-0.467 3.433-1.4 4.8-0.933 1.367-2.19 2.433-3.77 3.2-1.587 0.767-3.33 1.15-5.23 1.15v0h-16.85v-35.5h17.65c1.667 0 3.11 0.44 4.33 1.32 1.213 0.887 2.147 2.02 2.8 3.4 0.647 1.387 0.97 2.83 0.97 4.33v0c0 1.733-0.44 3.357-1.32 4.87-0.887 1.52-2.147 2.647-3.78 3.38v0c2.033 0.6 3.643 1.707 4.83 3.32 1.18 1.62 1.77 3.53 1.77 5.73zM26.95-9.95v0c0-1.1-0.24-2.117-0.72-3.05-0.487-0.933-1.137-1.683-1.95-2.25-0.82-0.567-1.763-0.85-2.83-0.85v0h-12.7v12.2h12.35c1.1 0 2.093-0.283 2.98-0.85 0.88-0.567 1.58-1.31 2.1-2.23 0.513-0.913 0.77-1.903 0.77-2.97zM20.35-31.6h-11.6v11.85h11.3c1.067 0 2.01-0.267 2.83-0.8 0.813-0.533 1.463-1.25 1.95-2.15 0.48-0.9 0.72-1.883 0.72-2.95v0c0-1.133-0.223-2.143-0.67-3.03-0.453-0.88-1.07-1.587-1.85-2.12-0.787-0.533-1.68-0.8-2.68-0.8zM48.5 0.5v0c-1.967 0-3.75-0.36-5.35-1.08-1.6-0.713-2.983-1.697-4.15-2.95-1.167-1.247-2.067-2.687-2.7-4.32-0.633-1.633-0.95-3.35-0.95-5.15v0c0-1.833 0.317-3.567 0.95-5.2 0.633-1.633 1.533-3.077 2.7-4.33 1.167-1.247 2.56-2.23 4.18-2.95 1.613-0.713 3.403-1.07 5.37-1.07v0c1.933 0 3.7 0.357 5.3 1.07 1.6 0.72 2.993 1.703 4.18 2.95 1.18 1.253 2.087 2.697 2.72 4.33 0.633 1.633 0.95 3.367 0.95 5.2v0c0 1.8-0.317 3.517-0.95 5.15-0.633 1.633-1.533 3.073-2.7 4.32-1.167 1.253-2.557 2.237-4.17 2.95-1.62 0.72-3.413 1.08-5.38 1.08zM39.85-12.95v0c0 1.8 0.393 3.433 1.18 4.9 0.78 1.467 1.82 2.623 3.12 3.47 1.3 0.853 2.75 1.28 4.35 1.28v0c1.6 0 3.06-0.433 4.38-1.3 1.313-0.867 2.363-2.043 3.15-3.53 0.78-1.48 1.17-3.12 1.17-4.92v0c0-1.8-0.39-3.433-1.17-4.9-0.787-1.467-1.837-2.633-3.15-3.5-1.32-0.867-2.78-1.3-4.38-1.3v0c-1.6 0-3.05 0.44-4.35 1.32-1.3 0.887-2.34 2.063-3.12 3.53-0.787 1.467-1.18 3.117-1.18 4.95zM77.45 0.3v0c-1.767 0-3.39-0.36-4.87-1.08-1.487-0.713-2.763-1.697-3.83-2.95-1.067-1.247-1.89-2.67-2.47-4.27-0.587-1.6-0.88-3.267-0.88-5v0c0-1.833 0.293-3.567 0.88-5.2 0.58-1.633 1.413-3.077 2.5-4.33 1.08-1.247 2.353-2.23 3.82-2.95 1.467-0.713 3.1-1.07 4.9-1.07v0c2.167 0 4.06 0.533 5.68 1.6 1.613 1.067 2.97 2.417 4.07 4.05v0-5.2h3.9v25.8c0 2.467-0.59 4.55-1.77 6.25-1.187 1.7-2.787 2.993-4.8 3.88-2.02 0.88-4.263 1.32-6.73 1.32v0c-2.933 0-5.333-0.517-7.2-1.55-1.867-1.033-3.417-2.433-4.65-4.2v0l2.55-2.25c1.033 1.533 2.377 2.683 4.03 3.45 1.647 0.767 3.403 1.15 5.27 1.15v0c1.6 0 3.077-0.29 4.43-0.87 1.347-0.587 2.43-1.48 3.25-2.68 0.813-1.2 1.22-2.7 1.22-4.5v0-4.6c-0.967 1.6-2.29 2.867-3.97 3.8-1.687 0.933-3.463 1.4-5.33 1.4zM78.8-3.3v0c0.933 0 1.833-0.167 2.7-0.5 0.867-0.333 1.667-0.777 2.4-1.33 0.733-0.547 1.35-1.17 1.85-1.87 0.5-0.7 0.833-1.417 1-2.15v0-7.5c-0.467-1.2-1.133-2.26-2-3.18-0.867-0.913-1.85-1.63-2.95-2.15-1.1-0.513-2.233-0.77-3.4-0.77v0c-1.333 0-2.523 0.283-3.57 0.85-1.053 0.567-1.947 1.323-2.68 2.27-0.733 0.953-1.3 2.013-1.7 3.18-0.4 1.167-0.6 2.35-0.6 3.55v0c0 1.3 0.233 2.527 0.7 3.68 0.467 1.147 1.1 2.17 1.9 3.07 0.8 0.9 1.75 1.6 2.85 2.1 1.1 0.5 2.267 0.75 3.5 0.75zM96.55-13v0c0-2.467 0.51-4.727 1.53-6.78 1.013-2.047 2.413-3.687 4.2-4.92 1.78-1.233 3.82-1.85 6.12-1.85v0c2.1 0 3.983 0.55 5.65 1.65 1.667 1.1 2.967 2.433 3.9 4v0-15.6h4.4v31.5c0 0.533 0.11 0.923 0.33 1.17 0.213 0.253 0.57 0.397 1.07 0.43v0 3.4c-0.833 0.133-1.483 0.2-1.95 0.2v0c-0.867 0-1.623-0.3-2.27-0.9-0.653-0.6-0.98-1.267-0.98-2v0-2.2c-1.033 1.667-2.417 2.983-4.15 3.95-1.733 0.967-3.533 1.45-5.4 1.45v0c-1.8 0-3.457-0.36-4.97-1.08-1.52-0.713-2.837-1.703-3.95-2.97-1.12-1.267-1.987-2.71-2.6-4.33-0.62-1.613-0.93-3.32-0.93-5.12zM117.95-9.15v0-7.5c-0.4-1.133-1.05-2.16-1.95-3.08-0.9-0.913-1.907-1.647-3.02-2.2-1.12-0.547-2.23-0.82-3.33-0.82v0c-1.3 0-2.473 0.273-3.52 0.82-1.053 0.553-1.953 1.287-2.7 2.2-0.753 0.92-1.33 1.963-1.73 3.13-0.4 1.167-0.6 2.383-0.6 3.65v0c0 1.3 0.227 2.533 0.68 3.7 0.447 1.167 1.08 2.2 1.9 3.1 0.813 0.9 1.763 1.6 2.85 2.1 1.08 0.5 2.253 0.75 3.52 0.75v0c0.8 0 1.627-0.15 2.48-0.45 0.847-0.3 1.653-0.717 2.42-1.25 0.767-0.533 1.417-1.16 1.95-1.88 0.533-0.713 0.883-1.47 1.05-2.27zM127.65-7.55v0c0-1.667 0.477-3.11 1.43-4.33 0.947-1.213 2.253-2.153 3.92-2.82 1.667-0.667 3.6-1 5.8-1v0c1.167 0 2.4 0.09 3.7 0.27 1.3 0.187 2.45 0.463 3.45 0.83v0-1.9c0-2-0.6-3.577-1.8-4.73-1.2-1.147-2.9-1.72-5.1-1.72v0c-1.433 0-2.807 0.257-4.12 0.77-1.32 0.52-2.713 1.263-4.18 2.23v0l-1.6-3.1c1.7-1.167 3.4-2.043 5.1-2.63 1.7-0.58 3.467-0.87 5.3-0.87v0c3.333 0 5.967 0.923 7.9 2.77 1.933 1.853 2.9 4.43 2.9 7.73v0 11.05c0 0.533 0.11 0.923 0.33 1.17 0.213 0.253 0.57 0.397 1.07 0.43v0 3.4c-0.433 0.067-0.807 0.117-1.12 0.15-0.32 0.033-0.58 0.05-0.78 0.05v0c-1.033 0-1.807-0.283-2.32-0.85-0.52-0.567-0.813-1.167-0.88-1.8v0l-0.1-1.65c-1.133 1.467-2.617 2.6-4.45 3.4-1.833 0.8-3.65 1.2-5.45 1.2v0c-1.733 0-3.283-0.36-4.65-1.08-1.367-0.713-2.433-1.68-3.2-2.9-0.767-1.213-1.15-2.57-1.15-4.07zM144.65-5.7v0c0.4-0.467 0.717-0.943 0.95-1.43 0.233-0.48 0.35-0.887 0.35-1.22v0-3.25c-1.033-0.4-2.117-0.71-3.25-0.93-1.133-0.213-2.25-0.32-3.35-0.32v0c-2.233 0-4.04 0.44-5.42 1.32-1.387 0.887-2.08 2.097-2.08 3.63v0c0 0.833 0.227 1.64 0.68 2.42 0.447 0.787 1.113 1.43 2 1.93 0.88 0.5 1.97 0.75 3.27 0.75v0c1.367 0 2.667-0.277 3.9-0.83 1.233-0.547 2.217-1.237 2.95-2.07zM180.05-15.6v15.6h-4.4v-14.6c0-2.767-0.423-4.793-1.27-6.08-0.853-1.28-2.147-1.92-3.88-1.92v0c-1.2 0-2.39 0.3-3.57 0.9-1.187 0.6-2.237 1.407-3.15 2.42-0.92 1.02-1.58 2.197-1.98 3.53v0 15.75h-4.4v-26.1h4v5.6c0.7-1.233 1.6-2.3 2.7-3.2 1.1-0.9 2.35-1.6 3.75-2.1 1.4-0.5 2.867-0.75 4.4-0.75v0c1.5 0 2.76 0.273 3.78 0.82 1.013 0.553 1.813 1.32 2.4 2.3 0.58 0.987 0.997 2.147 1.25 3.48 0.247 1.333 0.37 2.783 0.37 4.35z" fill="#9966ff" fill-rule="nonzero" stroke="none" stroke-width="1" stroke-linecap="butt" stroke-linejoin="miter" stroke-miterlimit="10" stroke-dasharray="" stroke-dashoffset="0" font-family="none" font-weight="none" font-size="none" text-anchor="none" style="mix-blend-mode: normal" data-fill-palette-color="primary" opacity="1"></path><path transform="translate(0,50.65)" d="M39.45 0h-4.5v-27.1l-11.7 20.85h-2.75l-11.75-20.85v27.1h-4.5v-35.5h4.75l12.85 23.05 12.9-23.05h4.7zM44.95-7.55v0c0-1.667 0.477-3.11 1.43-4.33 0.947-1.213 2.253-2.153 3.92-2.82 1.667-0.667 3.6-1 5.8-1v0c1.167 0 2.4 0.09 3.7 0.27 1.3 0.187 2.45 0.463 3.45 0.83v0-1.9c0-2-0.6-3.577-1.8-4.73-1.2-1.147-2.9-1.72-5.1-1.72v0c-1.433 0-2.807 0.257-4.12 0.77-1.32 0.52-2.713 1.263-4.18 2.23v0l-1.6-3.1c1.7-1.167 3.4-2.043 5.1-2.63 1.7-0.58 3.467-0.87 5.3-0.87v0c3.333 0 5.967 0.923 7.9 2.77 1.933 1.853 2.9 4.43 2.9 7.73v0 11.05c0 0.533 0.11 0.923 0.33 1.17 0.213 0.253 0.57 0.397 1.07 0.43v0 3.4c-0.433 0.067-0.807 0.117-1.12 0.15-0.32 0.033-0.58 0.05-0.78 0.05v0c-1.033 0-1.807-0.283-2.32-0.85-0.52-0.567-0.813-1.167-0.88-1.8v0l-0.1-1.65c-1.133 1.467-2.617 2.6-4.45 3.4-1.833 0.8-3.65 1.2-5.45 1.2v0c-1.733 0-3.283-0.36-4.65-1.08-1.367-0.713-2.433-1.68-3.2-2.9-0.767-1.213-1.15-2.57-1.15-4.07zM61.95-5.7v0c0.4-0.467 0.717-0.943 0.95-1.43 0.233-0.48 0.35-0.887 0.35-1.22v0-3.25c-1.033-0.4-2.117-0.71-3.25-0.93-1.133-0.213-2.25-0.32-3.35-0.32v0c-2.233 0-4.04 0.44-5.42 1.32-1.387 0.887-2.08 2.097-2.08 3.63v0c0 0.833 0.227 1.64 0.68 2.42 0.447 0.787 1.113 1.43 2 1.93 0.88 0.5 1.97 0.75 3.27 0.75v0c1.367 0 2.667-0.277 3.9-0.83 1.233-0.547 2.217-1.237 2.95-2.07zM88.5-26.25v4c-2.2 0.033-4.14 0.59-5.82 1.67-1.687 1.087-2.88 2.58-3.58 4.48v0 16.1h-4.4v-26.1h4.1v6.05c0.9-1.8 2.093-3.26 3.58-4.38 1.48-1.113 3.037-1.737 4.67-1.87v0c0.333 0 0.617 0 0.85 0 0.233 0 0.433 0.017 0.6 0.05zM103.8 0.5v0c-1.967 0-3.757-0.36-5.37-1.08-1.62-0.713-3.02-1.703-4.2-2.97-1.187-1.267-2.103-2.717-2.75-4.35-0.653-1.633-0.98-3.367-0.98-5.2v0c0-2.467 0.55-4.717 1.65-6.75 1.1-2.033 2.65-3.66 4.65-4.88 2-1.213 4.317-1.82 6.95-1.82v0c2.567 0 4.81 0.573 6.73 1.72 1.913 1.153 3.337 2.697 4.27 4.63v0l-4.3 1.35c-0.667-1.233-1.6-2.193-2.8-2.88-1.2-0.68-2.533-1.02-4-1.02v0c-1.6 0-3.057 0.417-4.37 1.25-1.32 0.833-2.363 1.977-3.13 3.43-0.767 1.447-1.15 3.103-1.15 4.97v0c0 1.833 0.393 3.49 1.18 4.97 0.78 1.487 1.83 2.663 3.15 3.53 1.313 0.867 2.77 1.3 4.37 1.3v0c1.033 0 2.027-0.183 2.98-0.55 0.947-0.367 1.78-0.86 2.5-1.48 0.713-0.613 1.203-1.287 1.47-2.02v0l4.3 1.3c-0.533 1.267-1.34 2.39-2.42 3.37-1.087 0.987-2.37 1.763-3.85 2.33-1.487 0.567-3.113 0.85-4.88 0.85zM142.6-15.6v15.6h-4.4v-14.6c0-2.667-0.473-4.667-1.42-6-0.953-1.333-2.313-2-4.08-2v0c-1.133 0-2.273 0.3-3.42 0.9-1.153 0.6-2.163 1.407-3.03 2.42-0.867 1.02-1.5 2.197-1.9 3.53v0 15.75h-4.4v-36.5h4.4v16c1.033-1.867 2.443-3.343 4.23-4.43 1.78-1.08 3.703-1.62 5.77-1.62v0c1.567 0 2.877 0.273 3.93 0.82 1.047 0.553 1.887 1.33 2.52 2.33 0.633 1 1.093 2.157 1.38 3.47 0.28 1.32 0.42 2.763 0.42 4.33zM153.85 0h-4.4v-26.1h4.4zM153.85-31h-4.4v-5.5h4.4zM169.9 0.5v0c-2.167 0-4.2-0.36-6.1-1.08-1.9-0.713-3.533-1.787-4.9-3.22v0l1.7-3.1c1.5 1.4 3 2.4 4.5 3 1.5 0.6 3.033 0.9 4.6 0.9v0c1.8 0 3.267-0.343 4.4-1.03 1.133-0.68 1.7-1.687 1.7-3.02v0c0-0.967-0.29-1.683-0.87-2.15-0.587-0.467-1.413-0.86-2.48-1.18-1.067-0.313-2.333-0.67-3.8-1.07v0c-1.8-0.533-3.317-1.1-4.55-1.7-1.233-0.6-2.167-1.35-2.8-2.25-0.633-0.9-0.95-2.033-0.95-3.4v0c0-1.667 0.433-3.077 1.3-4.23 0.867-1.147 2.06-2.02 3.58-2.62 1.513-0.6 3.237-0.9 5.17-0.9v0c1.933 0 3.683 0.3 5.25 0.9 1.567 0.6 2.917 1.483 4.05 2.65v0l-2 3.05c-1.033-1.067-2.167-1.86-3.4-2.38-1.233-0.513-2.617-0.77-4.15-0.77v0c-0.9 0-1.783 0.107-2.65 0.32-0.867 0.22-1.583 0.603-2.15 1.15-0.567 0.553-0.85 1.33-0.85 2.33v0c0 0.833 0.227 1.493 0.68 1.98 0.447 0.48 1.113 0.887 2 1.22 0.88 0.333 1.953 0.7 3.22 1.1v0c1.967 0.567 3.677 1.133 5.13 1.7 1.447 0.567 2.57 1.3 3.37 2.2 0.8 0.9 1.2 2.15 1.2 3.75v0c0 2.467-0.933 4.39-2.8 5.77-1.867 1.387-4.333 2.08-7.4 2.08z" fill="#9966ff" fill-rule="nonzero" stroke="none" stroke-width="1" stroke-linecap="butt" stroke-linejoin="miter" stroke-miterlimit="10" stroke-dasharray="" stroke-dashoffset="0" font-family="none" font-weight="none" font-size="none" text-anchor="none" style="mix-blend-mode: normal" data-fill-palette-color="primary" opacity="1"></path></g></svg></g></svg></g></svg></g></svg></g><g transform="matrix(1,0,0,1,0,0.4999999999999858)"><svg viewBox="0 0 207.64705882352933 200" height="200" width="207.64705882352933"><g><svg xmlns="http://www.w3.org/2000/svg" xmlns:xlink="http://www.w3.org/1999/xlink" version="1.1" x="0" y="0" viewBox="0.7 2 70.6 68.00000000000001" enable-background="new 0 0 72 72" xml:space="preserve" height="200" width="207.64705882352933" class="icon-icon-0" data-fill-palette-color="accent" id="icon-0"><g fill="#9966ff" data-fill-palette-color="accent"><g fill="#9966ff" data-fill-palette-color="accent"><g fill="#9966ff" data-fill-palette-color="accent"><g fill="#9966ff" data-fill-palette-color="accent"><path d="M49.7 41.2c-0.7 0-1.4-0.3-1.8-0.8-0.8-1-0.7-2.5 0.2-3.4l5.7-5.7c0.5-0.5 0.5-1.3 0-1.8l-5.7-5.7c-0.9-0.9-1.1-2.3-0.3-3.3 0.9-1.1 2.6-1.2 3.6-0.2l8.5 8.5c0.5 0.5 0.7 1.1 0.7 1.7 0 0.6-0.3 1.3-0.7 1.7l-8.5 8.5C51 41 50.3 41.2 49.7 41.2z" fill="#9966ff" data-fill-palette-color="accent"></path></g><g fill="#9966ff" data-fill-palette-color="accent"><path d="M22.3 41.2c-0.6 0-1.2-0.2-1.7-0.7L12.1 32c-0.5-0.5-0.7-1.1-0.7-1.7 0-0.6 0.3-1.3 0.7-1.7l8.4-8.4c0.9-0.9 2.4-1.1 3.3-0.3 1.1 0.9 1.2 2.6 0.2 3.6l-5.8 5.8c-0.5 0.5-0.5 1.3 0 1.8l5.7 5.7c0.9 0.9 1.1 2.4 0.2 3.4C23.6 40.9 22.9 41.2 22.3 41.2z" fill="#9966ff" data-fill-palette-color="accent"></path></g></g><g fill="#9966ff" data-fill-palette-color="accent"><path d="M30.9 47c-0.3 0-0.5 0-0.8-0.1-1.3-0.4-1.9-1.8-1.5-3.1l10.2-28.5c0.4-1.3 1.8-1.9 3.1-1.5 1.3 0.4 1.9 1.8 1.5 3.1L33.2 45.4C32.8 46.4 31.9 47 30.9 47z" fill="#9966ff" data-fill-palette-color="accent"></path></g></g><path d="M63.7 2H8.3C4.1 2 0.7 5.4 0.7 9.6v39.8c0 4.2 3.4 7.6 7.6 7.6h22c0.4 0 0.7 0.3 0.7 0.7v3.6c0 0.3-0.2 0.6-0.6 0.7-4.5 0.7-7.7 2.1-7.7 3.8 0 2.3 6 4.2 13.3 4.2s13.3-1.9 13.3-4.2c0-1.7-3.2-3.2-7.7-3.8-0.3 0-0.6-0.3-0.6-0.7v-3.6c0-0.4 0.3-0.7 0.7-0.7h22c4.2 0 7.6-3.4 7.6-7.6V9.6C71.3 5.4 67.9 2 63.7 2zM66.4 49.4c0 1.5-1.2 2.7-2.7 2.7H8.3c-1.5 0-2.7-1.2-2.7-2.7V9.6c0-1.5 1.2-2.7 2.7-2.7h55.4c1.5 0 2.7 1.2 2.7 2.7V49.4z" fill="#9966ff" data-fill-palette-color="accent"></path></g></svg></g></svg></g></svg></g><defs></defs></svg><rect width="395.52" height="130.81253856680448" fill="none" stroke="none" visibility="hidden"></rect></g></svg></g></svg>